@startuml
package Core {
  abstract class "DataProduct (DP)" as dp

  abstract class "ProductList (PL)" as pl
  class "LayerList (LL)" as ll
  class "Map (MAP)" as map

  abstract class "SingleActor (SA)" as sa
  class "FacadeLayer (FL)" as fl
  class "SingleLayer (SL)" as sl
  class "ExtWmsLayer" as ewl

  class "PropertiesInFacade" as pif << (H, grey) Association Class >>
  class "PropertiesInList" as pil << (H, grey) Association Class >>

  dp <|-- pl
  pl <|-- ll
  pl <|-- map

  dp <|-- sa
  sa <|-- sl
  sa <|-- fl
  sa <|-- ewl

  pl "1" -right- "1..n" pil : "      "
  pil "*" -right- "1" sa : "      "

  map "*" -- "0..1" map : "foreground map - background map"

  fl "1" -- "1..n" pif : "      "
  pif "*" -up- "1" sl : "      "
}
@enduml